<?xml version="1.0" encoding="utf-8"?>
<svg version="1.1" id="Layer_1" x="0px" y="0px" viewBox="0 0 300 300" style="enable-background:new 0 0 300 300;" xmlns="http://www.w3.org/2000/svg">
  <defs>
    <linearGradient y2="0%" x2="100%" y1="0%" x1="0%" id="ecad8e99-414b-4f84-875a-c8e217e9ed35" gradientTransform="rotate(25)">
      <stop stop-color=" rgb(140, 72, 210)" offset="0"/>
      <stop stop-color=" rgb(207, 112, 90)" offset="1"/>
    </linearGradient>
  </defs>
  <style type="text/css">
	.st0{fill:url(#SVGID_1_);}
</style>
  <g transform="matrix(1, 0, 0, 1, -4.092872, 4.145457)">
    <title>Layer 1</title>
    <g fill="url(#ecad8e99-414b-4f84-875a-c8e217e9ed35)" transform="matrix(3.98135 0 0 4.13251 -335.723 162.951)" id="8bd6f884-b57e-4ae0-bb6b-bd9d72ece99e">
      <path id="svg_2" d="m158.703,-2.58759c0,-13.255 -10.745,-24 -23.999,-24a29.868,29.868 0 0 0 -18.001,-6c-16.569,0 -30,13.431 -30,30c0,16.569 13.431,30 30,30a29.863,29.863 0 0 0 18,-6c13.255,0 24,-10.745 24,-24zm-25.023,20.974a20.872,20.872 0 0 1 -11.213,-3.923c7.113,-2.404 12.236,-9.127 12.236,-17.051s-5.123,-14.647 -12.235,-17.051a20.872,20.872 0 0 1 11.213,-3.923c6.108,4.954 10.022,12.514 10.022,20.974s-3.914,16.02 -10.023,20.974zm-19.977,-20.974c0,-5.717 2.299,-10.905 6.017,-14.695c6.83,1.4 11.983,7.457 11.983,14.695s-5.153,13.295 -11.983,14.695c-3.718,-3.79 -6.017,-8.978 -6.017,-14.695zm2.256,14.981c-7.927,-0.389 -14.256,-6.959 -14.256,-14.981s6.329,-14.592 14.256,-14.981a23.893,23.893 0 0 0 -5.256,14.981c0,5.669 1.97,10.875 5.256,14.981zm-26.256,-14.981c0,-14.888 12.112,-27 27,-27c4.804,0 9.316,1.267 13.228,3.476a23.918,23.918 0 0 0 -11.225,5.638a18.153,18.153 0 0 0 -2.003,-0.114c-9.941,0 -18,8.059 -18,18s8.059,18 18,18c0.677,0 1.345,-0.041 2.003,-0.114a23.927,23.927 0 0 0 11.225,5.638a26.822,26.822 0 0 1 -13.228,3.476c-14.888,0 -27,-12.112 -27,-27zm48.741,20.66c5.114,-5.381 8.259,-12.651 8.259,-20.66s-3.145,-15.279 -8.259,-20.66c9.8,1.771 17.259,10.358 17.259,20.66s-7.459,18.889 -17.259,20.66z" style="fill-opacity: 1; paint-order: stroke markers; fill-rule: evenodd;"/>
    </g>
  </g>
</svg>